#N canvas 0 0 1366 669 10;
#X obj 85 56 gemhead;
#X obj 150 281 pix_diff;
#X obj 33 407 pix_texture;
#X obj 33 452 rectangle 4 3;
#X obj 150 208 pix_separator;
#X obj 203 237 pix_separator;
#X obj 150 144 pix_grey;
#X obj 150 119 pix_video;
#X obj 154 365 pix_blob;
#X obj 33 430 translateXYZ 0 0 -0.1;
#X obj 150 326 pix_threshold;
#X obj 191 304 hsl 128 15 0 1 0 1 empty empty threshold 8 8 0 10 -262130
-1 -1 4500 0;
#X obj 203 259 pix_delay 1;
#N canvas 10 40 620 812 cursor 0;
#X obj 17 14 inlet;
#X obj 182 16 inlet;
#X obj 101 346 translateXYZ;
#X text 93 148 0.64;
#X text 67 151 1;
#X obj 29 71 t f f;
#X obj 63 186 -;
#X text 50 173 X-Range;
#X text 240 165 Y-Range;
#X obj 23 231 -;
#X obj 23 271 *;
#X obj 29 95 max 0;
#X obj 71 95 min 10;
#X obj 55 116 f;
#X obj 29 115 f;
#X obj 23 293 - 4;
#X text 248 146 0.64;
#X text 222 149 1;
#X obj 214 59 t f f;
#X obj 218 165 -;
#X obj 182 209 -;
#X obj 182 231 *;
#X obj 214 93 max 0;
#X obj 256 93 min 10;
#X obj 244 130 f;
#X obj 218 129 f;
#X obj 321 27 inlet;
#X obj 321 59 * 10;
#X obj 101 320 gemhead 15;
#X obj 254 509 circle 0.1;
#X obj 101 423 separator;
#X obj 124 463 separator;
#X obj 124 484 rectangle 0.2 0.01;
#X obj 254 423 separator;
#X msg 282 478 draw line;
#X obj 282 457 loadbang;
#X obj 101 366 colorRGB 1 0 0 1;
#X obj 101 442 rectangle 0.01 0.2;
#X msg 353 478 width \$1;
#X obj 353 342 int;
#X obj 353 363 + 1;
#X msg 63 209 8 \$1;
#X obj 63 230 /;
#X obj 17 36 t f f;
#X obj 182 38 t f f;
#X msg 218 187 8 \$1;
#X obj 218 209 /;
#X obj 182 253 * -1;
#X obj 182 275 + 4;
#X obj 321 81 t f f;
#X obj 101 388 t a a a;
#X connect 0 0 43 0;
#X connect 1 0 44 0;
#X connect 2 0 36 0;
#X connect 5 0 11 0;
#X connect 5 1 12 0;
#X connect 6 0 41 0;
#X connect 9 0 10 0;
#X connect 10 0 15 0;
#X connect 11 0 14 0;
#X connect 12 0 13 0;
#X connect 13 0 6 1;
#X connect 13 0 9 1;
#X connect 13 0 12 1;
#X connect 14 0 6 0;
#X connect 14 0 11 1;
#X connect 15 0 2 1;
#X connect 18 0 22 0;
#X connect 18 1 23 0;
#X connect 19 0 45 0;
#X connect 20 0 21 0;
#X connect 21 0 47 0;
#X connect 22 0 25 0;
#X connect 23 0 24 0;
#X connect 24 0 19 1;
#X connect 24 0 20 1;
#X connect 24 0 23 1;
#X connect 25 0 19 0;
#X connect 25 0 22 1;
#X connect 26 0 27 0;
#X connect 27 0 49 0;
#X connect 28 0 2 0;
#X connect 30 0 37 0;
#X connect 31 0 32 0;
#X connect 33 0 29 0;
#X connect 34 0 29 0;
#X connect 35 0 34 0;
#X connect 36 0 50 0;
#X connect 38 0 29 0;
#X connect 39 0 40 0;
#X connect 40 0 38 0;
#X connect 41 0 42 0;
#X connect 42 0 10 1;
#X connect 43 0 9 0;
#X connect 43 1 5 0;
#X connect 44 0 20 0;
#X connect 44 1 18 0;
#X connect 45 0 46 0;
#X connect 46 0 21 1;
#X connect 47 0 48 0;
#X connect 48 0 2 2;
#X connect 49 0 29 1;
#X connect 49 1 39 0;
#X connect 50 0 30 0;
#X connect 50 1 31 0;
#X connect 50 2 33 0;
#X restore 166 400 pd cursor;
#X obj 150 175 t a a;
#X obj 388 141 gemwin;
#X msg 476 75 destroy;
#X msg 554 77 dimen 1280 720;
#X msg 388 73 create \, 1;
#X text 391 32 When we clic on create \, create a window to see the
camera \, and destroy for destroy it;
#X floatatom 269 426 0 0 0 0 - - -;
#X obj 260 385 * 1000;
#X floatatom 352 528 0 0 0 0 - - -;
#X obj 319 489 > 0;
#X floatatom 409 596 0 0 0 0 - - -;
#X obj 281 459 - 500;
#X floatatom 615 656 0 0 0 0 - - -;
#X obj 353 562 float;
#X obj 482 561 + 1;
#X msg 176 511 0;
#X obj 888 459 cos~;
#X floatatom 939 262 4 0 200 0 - - -;
#X obj 939 285 / 10;
#X text 939 181 center;
#X text 939 201 freq. (in;
#X text 939 221 tenths of;
#X text 939 241 fundamental);
#X floatatom 836 270 4 0 0 0 - - -;
#X text 812 223 fundamental;
#X text 812 243 (= mod freq);
#X text 1017 286 index;
#X text 1017 306 (percent);
#X floatatom 1017 327 4 0 500 0 - - -;
#X obj 1017 396 line~;
#X obj 967 416 *~;
#X obj 1017 350 / 100;
#X obj 1017 373 pack 0 50;
#X obj 888 436 +~;
#X text 970 442 modulating;
#X text 975 459 oscillator;
#X obj 885 537 output~;
#X obj 888 506 hip~;
#N canvas 122 211 558 609 fft 0;
#X obj 23 55 inlet~;
#X obj 210 303 inlet;
#X obj 27 215 rfft~;
#X obj 27 248 *~;
#X obj 58 248 *~;
#X obj 27 278 sqrt~;
#X obj 334 200 block~ 4096 1;
#X obj 27 304 biquad~ 0 0 0 0 1;
#X text 91 216 Fourier series;
#X text 96 269 magnitude;
#X text 94 254 calculate;
#X text 21 3 This subpatch computes the spectrum of the incoming signal
with a (rectangular windowed) FFT. FFTs aren't properly introduced
until much later.;
#X text 83 61 signal to analyze;
#X text 195 255 delay two samples;
#X text 193 273 for better graphing;
#X obj 292 79 samplerate~;
#X obj 240 352 metro 500;
#X obj 240 329 inlet;
#X text 293 327 toggle to graph repeatedly;
#X text 264 303 bang to graph once;
#X obj 27 328 /~ 4096;
#X obj 292 54 bang~;
#X msg 211 413 \; pd dsp 1;
#X obj 292 102 / 4096;
#X obj 58 135 osc~;
#X obj 58 163 +~ 1;
#X obj 28 188 *~;
#X text 113 138 hanning window;
#X obj 254 79 0.5;
#X obj 240 390 tabwrite~ F11-spectrum;
#X connect 0 0 26 0;
#X connect 1 0 22 0;
#X connect 1 0 29 0;
#X connect 2 0 3 0;
#X connect 2 0 3 1;
#X connect 2 1 4 0;
#X connect 2 1 4 1;
#X connect 3 0 5 0;
#X connect 4 0 5 0;
#X connect 5 0 7 0;
#X connect 7 0 20 0;
#X connect 15 0 23 0;
#X connect 16 0 29 0;
#X connect 17 0 16 0;
#X connect 17 0 22 0;
#X connect 20 0 29 0;
#X connect 21 0 15 0;
#X connect 21 0 28 0;
#X connect 23 0 24 0;
#X connect 24 0 25 0;
#X connect 25 0 26 1;
#X connect 26 0 2 0;
#X connect 28 0 24 1;
#X restore 942 506 pd fft;
#X obj 1002 485 bng 18 250 50 0 empty empty empty 0 -6 0 8 -262144
-1 -1;
#X obj 1002 506 tgl 18 0 empty empty empty 0 -6 0 8 -262144 -1 -1 1
1;
#X text 1023 505 <-- repeatedly;
#X text 1024 485 <-- graph once;
#N canvas 0 0 450 300 (subpatch) 0;
#X array F11-spectrum 259 float 0;
#X coords 0 0.51 258 -0.008 256 130 1;
#X restore 1128 257 graph;
#X text 1147 401 0;
#X text 1237 393 -- frequency --;
#X text 1384 406 2700;
#X obj 939 334 *;
#X obj 939 311 t b f;
#X obj 967 393 osc~;
#X obj 888 400 phasor~;
#X text 816 386 carrier;
#X text 790 403 oscillator;
#X obj 642 577 * 270;
#X obj 641 613 * 200;
#X text 341 458 <-- choose a x point;
#X text 492 622 <-- choose a level;
#X text 676 594 <-- choose a sound;
#X obj 456 622 > 20;
#X msg 212 78 device 0;
#N canvas 162 133 570 420 serin 0;
#X obj 205 60 cnv 20 20 20 empty \$0-open-canvas 0 4 10 0 16 -233017
-1 0;
#X obj 60 61 hradio 18 1 1 8 empty empty empty 0 -6 0 8 -225271 -1
-1 0;
#X obj 60 13 inlet;
#X msg 200 202 label \$1;
#X obj 200 180 makefilename %d;
#X obj 59 108 int;
#X obj 59 337 outlet;
#X msg 201 306 set \$1 \$2;
#X obj 59 266 trigger bang anything;
#X obj 201 286 list;
#X obj 200 225 send \$0-open-canvas;
#X msg 60 210 device \$1;
#X connect 1 0 5 0;
#X connect 2 0 1 0;
#X connect 3 0 10 0;
#X connect 4 0 3 0;
#X connect 5 0 4 0;
#X connect 5 0 11 0;
#X connect 7 0 6 0;
#X connect 8 0 6 0;
#X connect 8 1 9 0;
#X connect 9 0 7 0;
#X connect 11 0 8 0;
#X coords 0 -1 1 1 165 20 1 60 60;
#X restore 212 54 pd serin;
#X msg 260 105 dialog;
#X connect 0 0 7 0;
#X connect 1 0 10 0;
#X connect 2 0 9 0;
#X connect 4 0 1 0;
#X connect 5 0 12 0;
#X connect 6 0 14 0;
#X connect 7 0 6 0;
#X connect 8 1 13 0;
#X connect 8 2 13 1;
#X connect 8 2 21 0;
#X connect 8 3 13 2;
#X connect 9 0 3 0;
#X connect 10 0 8 0;
#X connect 10 0 2 0;
#X connect 11 0 10 1;
#X connect 12 0 1 1;
#X connect 14 0 5 0;
#X connect 14 1 4 0;
#X connect 16 0 15 0;
#X connect 17 0 15 0;
#X connect 18 0 15 0;
#X connect 20 0 25 0;
#X connect 21 0 20 0;
#X connect 22 0 27 0;
#X connect 23 0 22 0;
#X connect 24 0 28 1;
#X connect 24 0 72 0;
#X connect 25 0 23 0;
#X connect 26 0 67 0;
#X connect 26 0 68 0;
#X connect 27 0 28 0;
#X connect 28 0 27 1;
#X connect 28 0 24 0;
#X connect 29 0 24 0;
#X connect 30 0 51 0;
#X connect 30 0 52 0;
#X connect 31 0 32 0;
#X connect 32 0 62 0;
#X connect 37 0 61 0;
#X connect 37 0 63 0;
#X connect 42 0 45 0;
#X connect 43 0 44 1;
#X connect 44 0 47 1;
#X connect 45 0 46 0;
#X connect 46 0 43 0;
#X connect 47 0 30 0;
#X connect 51 0 50 0;
#X connect 51 0 50 1;
#X connect 53 0 52 1;
#X connect 54 0 52 2;
#X connect 61 0 64 0;
#X connect 62 0 61 0;
#X connect 62 1 61 1;
#X connect 63 0 44 0;
#X connect 64 0 47 0;
#X connect 67 0 37 0;
#X connect 68 0 31 0;
#X connect 72 0 26 0;
#X connect 73 0 7 0;
#X connect 74 0 73 0;
#X connect 75 0 7 0;
